<?xml version="1.0" encoding="UTF-8" standalone="no"?>
<!-- Created with Inkscape (http://www.inkscape.org/) -->

<svg
   version="1.1"
   id="svg2"
   width="384"
   height="192"
   viewBox="0 0 384 192"
   sodipodi:docname="counts-siemensdamm-east.pdf"
   xmlns:inkscape="http://www.inkscape.org/namespaces/inkscape"
   xmlns:sodipodi="http://sodipodi.sourceforge.net/DTD/sodipodi-0.dtd"
   xmlns="http://www.w3.org/2000/svg"
   xmlns:svg="http://www.w3.org/2000/svg">
  <defs
     id="defs6">
    <clipPath
       clipPathUnits="userSpaceOnUse"
       id="clipPath80">
      <path
         d="M 43.05,41.8 H 277.2 v 75.4 H 43.05 Z"
         id="path78" />
    </clipPath>
    <clipPath
       clipPathUnits="userSpaceOnUse"
       id="clipPath90">
      <path
         d="M 43.05,41.8 H 277.2 v 75.4 H 43.05 Z"
         id="path88" />
    </clipPath>
    <clipPath
       clipPathUnits="userSpaceOnUse"
       id="clipPath100">
      <path
         d="M 43.05,41.8 H 277.2 v 75.4 H 43.05 Z"
         id="path98" />
    </clipPath>
  </defs>
  <sodipodi:namedview
     id="namedview4"
     pagecolor="#ffffff"
     bordercolor="#666666"
     borderopacity="1.0"
     inkscape:showpageshadow="2"
     inkscape:pageopacity="0.0"
     inkscape:pagecheckerboard="0"
     inkscape:deskcolor="#d1d1d1" />
  <g
     id="g8"
     inkscape:groupmode="layer"
     inkscape:label="counts-siemensdamm-east"
     transform="matrix(1.3333333,0,0,-1.3333333,0,192)">
    <path
       d="M 43.05,41.8 H 277.2 v 75.4 H 43.05 Z"
       style="fill:#ffffff;fill-opacity:1;fill-rule:nonzero;stroke:none"
       id="path10" />
    <path
       d="M 53.693182,41.8 V 38.3"
       style="fill:#000000;fill-opacity:1;fill-rule:nonzero;stroke:#000000;stroke-width:0.8;stroke-linecap:butt;stroke-linejoin:round;stroke-miterlimit:10;stroke-dasharray:none;stroke-opacity:1"
       id="path12" />
    <g
       id="g14"
       transform="translate(50.513494,27.20625)">
      <text
         xml:space="preserve"
         transform="scale(1,-1)"
         style="font-variant:normal;font-weight:normal;font-size:10px;font-family:DejaVuSans;-inkscape-font-specification:DejaVuSans;writing-mode:lr-tb;fill:#000000;fill-opacity:1;fill-rule:nonzero;stroke:none"
         id="text18"><tspan
           x="0"
           y="0"
           id="tspan16">0</tspan></text>
    </g>
    <path
       d="M 99.967885,41.8 V 38.3"
       style="fill:#000000;fill-opacity:1;fill-rule:nonzero;stroke:#000000;stroke-width:0.8;stroke-linecap:butt;stroke-linejoin:round;stroke-miterlimit:10;stroke-dasharray:none;stroke-opacity:1"
       id="path20" />
    <g
       id="g22"
       transform="translate(96.788198,27.20625)">
      <text
         xml:space="preserve"
         transform="scale(1,-1)"
         style="font-variant:normal;font-weight:normal;font-size:10px;font-family:DejaVuSans;-inkscape-font-specification:DejaVuSans;writing-mode:lr-tb;fill:#000000;fill-opacity:1;fill-rule:nonzero;stroke:none"
         id="text26"><tspan
           x="0"
           y="0"
           id="tspan24">5</tspan></text>
    </g>
    <path
       d="M 146.24259,41.8 V 38.3"
       style="fill:#000000;fill-opacity:1;fill-rule:nonzero;stroke:#000000;stroke-width:0.8;stroke-linecap:butt;stroke-linejoin:round;stroke-miterlimit:10;stroke-dasharray:none;stroke-opacity:1"
       id="path28" />
    <g
       id="g30"
       transform="translate(139.88321,27.20625)">
      <text
         xml:space="preserve"
         transform="scale(1,-1)"
         style="font-variant:normal;font-weight:normal;font-size:10px;font-family:DejaVuSans;-inkscape-font-specification:DejaVuSans;writing-mode:lr-tb;fill:#000000;fill-opacity:1;fill-rule:nonzero;stroke:none"
         id="text34"><tspan
           x="0 6.3600001"
           y="0"
           sodipodi:role="line"
           id="tspan32">10</tspan></text>
    </g>
    <path
       d="M 192.51729,41.8 V 38.3"
       style="fill:#000000;fill-opacity:1;fill-rule:nonzero;stroke:#000000;stroke-width:0.8;stroke-linecap:butt;stroke-linejoin:round;stroke-miterlimit:10;stroke-dasharray:none;stroke-opacity:1"
       id="path36" />
    <g
       id="g38"
       transform="translate(186.15792,27.20625)">
      <text
         xml:space="preserve"
         transform="scale(1,-1)"
         style="font-variant:normal;font-weight:normal;font-size:10px;font-family:DejaVuSans;-inkscape-font-specification:DejaVuSans;writing-mode:lr-tb;fill:#000000;fill-opacity:1;fill-rule:nonzero;stroke:none"
         id="text42"><tspan
           x="0 6.3600001"
           y="0"
           sodipodi:role="line"
           id="tspan40">15</tspan></text>
    </g>
    <path
       d="M 238.792,41.8 V 38.3"
       style="fill:#000000;fill-opacity:1;fill-rule:nonzero;stroke:#000000;stroke-width:0.8;stroke-linecap:butt;stroke-linejoin:round;stroke-miterlimit:10;stroke-dasharray:none;stroke-opacity:1"
       id="path44" />
    <g
       id="g46"
       transform="translate(232.43262,27.20625)">
      <text
         xml:space="preserve"
         transform="scale(1,-1)"
         style="font-variant:normal;font-weight:normal;font-size:10px;font-family:DejaVuSans;-inkscape-font-specification:DejaVuSans;writing-mode:lr-tb;fill:#000000;fill-opacity:1;fill-rule:nonzero;stroke:none"
         id="text50"><tspan
           x="0 6.3600001"
           y="0"
           sodipodi:role="line"
           id="tspan48">20</tspan></text>
    </g>
    <g
       id="g52"
       transform="translate(148.66406,13.534375)">
      <text
         xml:space="preserve"
         transform="scale(1,-1)"
         style="font-variant:normal;font-weight:normal;font-size:10px;font-family:DejaVuSans;-inkscape-font-specification:DejaVuSans;writing-mode:lr-tb;fill:#000000;fill-opacity:1;fill-rule:nonzero;stroke:none"
         id="text56"><tspan
           x="0 6.3400002 12.46 18.799999"
           y="0"
           sodipodi:role="line"
           id="tspan54">hour</tspan></text>
    </g>
    <path
       d="m 43.05,44.972457 h -3.5"
       style="fill:#000000;fill-opacity:1;fill-rule:nonzero;stroke:#000000;stroke-width:0.8;stroke-linecap:butt;stroke-linejoin:round;stroke-miterlimit:10;stroke-dasharray:none;stroke-opacity:1"
       id="path58" />
    <g
       id="g60"
       transform="translate(29.690625,41.175582)">
      <text
         xml:space="preserve"
         transform="scale(1,-1)"
         style="font-variant:normal;font-weight:normal;font-size:10px;font-family:DejaVuSans;-inkscape-font-specification:DejaVuSans;writing-mode:lr-tb;fill:#000000;fill-opacity:1;fill-rule:nonzero;stroke:none"
         id="text64"><tspan
           x="0"
           y="0"
           id="tspan62">0</tspan></text>
    </g>
    <path
       d="m 43.05,81.374716 h -3.5"
       style="fill:#000000;fill-opacity:1;fill-rule:nonzero;stroke:#000000;stroke-width:0.8;stroke-linecap:butt;stroke-linejoin:round;stroke-miterlimit:10;stroke-dasharray:none;stroke-opacity:1"
       id="path66" />
    <g
       id="g68"
       transform="translate(10.6125,77.577841)">
      <text
         xml:space="preserve"
         transform="scale(1,-1)"
         style="font-variant:normal;font-weight:normal;font-size:10px;font-family:DejaVuSans;-inkscape-font-specification:DejaVuSans;writing-mode:lr-tb;fill:#000000;fill-opacity:1;fill-rule:nonzero;stroke:none"
         id="text72"><tspan
           x="0 6.3600001 12.72 19.08"
           y="0"
           sodipodi:role="line"
           id="tspan70">1000</tspan></text>
    </g>
    <g
       id="g74">
      <g
         id="g76"
         clip-path="url(#clipPath80)">
        <path
           d="m 53.693182,50.250785 9.254941,-1.310482 9.25494,-0.546034 9.254941,-0.182011 9.254941,5.169121 9.25494,22.423792 9.254945,24.1711 9.25494,-3.130594 9.25494,-5.642351 9.25494,-5.678752 9.25494,-5.860764 9.25494,1.274079 9.25494,0.07281 9.25494,7.753681 9.25494,8.263313 9.25494,-0.436827 9.25494,-6.698016 9.25494,0.473229 9.25494,4.113456 9.25494,-11.721528 9.25495,-14.815719 9.25494,-0.655241 9.25494,-4.550282 9.25494,-7.644475"
           style="fill:none;stroke:#0000ff;stroke-width:1.5;stroke-linecap:square;stroke-linejoin:round;stroke-miterlimit:10;stroke-dasharray:none;stroke-opacity:1"
           id="path82" />
      </g>
    </g>
    <g
       id="g84">
      <g
         id="g86"
         clip-path="url(#clipPath90)">
        <path
           d="m 53.693182,45.554893 9.254941,-0.32762 9.25494,0.0728 9.254941,0.364023 9.254941,0.873654 9.25494,23.04263 9.254945,19.438807 9.25494,5.132718 9.25494,-8.627335 9.25494,5.933568 9.25494,-2.875778 9.25494,-1.528895 9.25494,1.237677 9.25494,1.892917 9.25494,1.710906 9.25494,-1.237676 9.25494,3.531019 9.25494,-0.655241 9.25494,-7.207647 9.25494,-15.798581 9.25495,-11.139091 9.25494,-3.895042 9.25494,-0.364023 9.25494,-6.77082"
           style="fill:none;stroke:#ff0000;stroke-width:1.5;stroke-linecap:butt;stroke-linejoin:round;stroke-miterlimit:10;stroke-dasharray:5.55, 2.4;stroke-dashoffset:0;stroke-opacity:1"
           id="path92" />
      </g>
    </g>
    <g
       id="g94">
      <g
         id="g96"
         clip-path="url(#clipPath100)">
        <path
           d="m 53.693182,46.428547 9.254941,-0.728045 h 9.25494 l 9.254941,2.184136 9.254941,2.91218 9.25494,33.490079 9.254945,28.393763 9.25494,-5.46034 9.25494,-0.36402 9.25494,2.54816 9.25494,0.72804 9.25494,-5.09631 9.25494,0.72804 9.25494,8.0085 9.25494,-6.91643 9.25494,-1.45609 9.25494,7.64447 9.25494,-8.37252 9.25494,3.64023 9.25494,-1.45609 9.25495,-11.648725 9.25494,-14.196881 9.25494,-17.473085 9.25494,-10.920678"
           style="fill:none;stroke:#808080;stroke-width:1.5;stroke-linecap:butt;stroke-linejoin:round;stroke-miterlimit:10;stroke-dasharray:9.6, 2.4, 1.5, 2.4;stroke-dashoffset:0;stroke-opacity:1"
           id="path102" />
      </g>
    </g>
    <g
       id="g104">
      <path
         d="m 43.05,41.8 v 75.4"
         style="fill:none;stroke:#000000;stroke-width:0.8;stroke-linecap:square;stroke-linejoin:miter;stroke-miterlimit:10;stroke-dasharray:none;stroke-opacity:1"
         id="path106" />
      <path
         d="m 277.2,41.8 v 75.4"
         style="fill:none;stroke:#000000;stroke-width:0.8;stroke-linecap:square;stroke-linejoin:miter;stroke-miterlimit:10;stroke-dasharray:none;stroke-opacity:1"
         id="path108" />
      <path
         d="M 43.05,41.8 H 277.2"
         style="fill:none;stroke:#000000;stroke-width:0.8;stroke-linecap:square;stroke-linejoin:miter;stroke-miterlimit:10;stroke-dasharray:none;stroke-opacity:1"
         id="path110" />
      <path
         d="M 43.05,117.2 H 277.2"
         style="fill:none;stroke:#000000;stroke-width:0.8;stroke-linecap:square;stroke-linejoin:miter;stroke-miterlimit:10;stroke-dasharray:none;stroke-opacity:1"
         id="path112" />
      <g
         id="g114"
         transform="translate(71.4375,123.2)">
        <text
           xml:space="preserve"
           transform="scale(1,-1)"
           style="font-variant:normal;font-weight:normal;font-size:12px;font-family:DejaVuSans;-inkscape-font-specification:DejaVuSans;writing-mode:lr-tb;fill:#000000;fill-opacity:1;fill-rule:nonzero;stroke:none"
           id="text118"><tspan
             x="0 7.6199999 10.956 18.336 30.024 37.403999 45.012001 51.264 58.883999 66.239998 77.928001 89.615997 93.431999 101.016 108.372 114.624 119.328 123.144 132.384 135.72 140.40199 147.782 154.382 159.086 162.422 169.76601"
             y="0"
             sodipodi:role="line"
             id="tspan116">Siemensdamm East Direction</tspan></text>
      </g>
      <path
         d="m 50.05,55.992188 h 69.54687 c 1.33334,0 2,0.666666 2,2 v 43.015622 c 0,1.33334 -0.66666,2 -2,2 H 50.05 c -1.333333,0 -2,-0.66666 -2,-2 V 57.992188 c 0,-1.333334 0.666667,-2 2,-2 z"
         style="fill:#ffffff;fill-opacity:0.8;fill-rule:nonzero;stroke:#cccccc;stroke-width:1;stroke-linecap:butt;stroke-linejoin:miter;stroke-miterlimit:10;stroke-dasharray:none;stroke-opacity:0.8"
         id="path120" />
      <path
         d="m 52.05,94.914062 h 10 10"
         style="fill:none;stroke:#0000ff;stroke-width:1.5;stroke-linecap:square;stroke-linejoin:round;stroke-miterlimit:10;stroke-dasharray:none;stroke-opacity:1"
         id="path122" />
      <g
         id="g124"
         transform="translate(80.05,91.414063)">
        <text
           xml:space="preserve"
           transform="scale(1,-1)"
           style="font-variant:normal;font-weight:normal;font-size:10px;font-family:DejaVuSans;-inkscape-font-specification:DejaVuSans;writing-mode:lr-tb;fill:#000000;fill-opacity:1;fill-rule:nonzero;stroke:none"
           id="text128"><tspan
             x="0 3.8912499 10.04125 16.171249"
             y="0"
             sodipodi:role="line"
             id="tspan126">real</tspan></text>
      </g>
      <path
         d="m 52.05,80.242188 h 10 10"
         style="fill:none;stroke:#ff0000;stroke-width:1.5;stroke-linecap:butt;stroke-linejoin:round;stroke-miterlimit:10;stroke-dasharray:5.55, 2.4;stroke-dashoffset:0;stroke-opacity:1"
         id="path130" />
      <g
         id="g132"
         transform="translate(80.05,76.742187)">
        <text
           xml:space="preserve"
           transform="scale(1,-1)"
           style="font-variant:normal;font-weight:normal;font-size:10px;font-family:DejaVuSans;-inkscape-font-specification:DejaVuSans;writing-mode:lr-tb;fill:#000000;fill-opacity:1;fill-rule:nonzero;stroke:none"
           id="text136"><tspan
             x="0 5.21 11.55 21.290001"
             y="0"
             sodipodi:role="line"
             id="tspan134">sumo</tspan></text>
      </g>
      <path
         d="m 52.05,65.570312 h 10 10"
         style="fill:none;stroke:#808080;stroke-width:1.5;stroke-linecap:butt;stroke-linejoin:round;stroke-miterlimit:10;stroke-dasharray:9.6, 2.4, 1.5, 2.4;stroke-dashoffset:0;stroke-opacity:1"
         id="path138" />
      <g
         id="g140"
         transform="translate(80.05,62.070313)">
        <text
           xml:space="preserve"
           transform="scale(1,-1)"
           style="font-variant:normal;font-weight:normal;font-size:10px;font-family:DejaVuSans;-inkscape-font-specification:DejaVuSans;writing-mode:lr-tb;fill:#000000;fill-opacity:1;fill-rule:nonzero;stroke:none"
           id="text144"><tspan
             x="0 9.7399998 15.87 19.790001 25 27.780001"
             y="0"
             sodipodi:role="line"
             id="tspan142">matsim</tspan></text>
      </g>
    </g>
  </g>
</svg>
