<?xml version="1.0" encoding="UTF-8" standalone="no"?>
<!-- Created with Inkscape (http://www.inkscape.org/) -->

<svg
   version="1.1"
   id="svg2"
   width="384"
   height="192"
   viewBox="0 0 384 192"
   sodipodi:docname="counts-treskowallee-south.pdf"
   xmlns:inkscape="http://www.inkscape.org/namespaces/inkscape"
   xmlns:sodipodi="http://sodipodi.sourceforge.net/DTD/sodipodi-0.dtd"
   xmlns="http://www.w3.org/2000/svg"
   xmlns:svg="http://www.w3.org/2000/svg">
  <defs
     id="defs6">
    <clipPath
       clipPathUnits="userSpaceOnUse"
       id="clipPath80">
      <path
         d="M 36.675,41.8 H 277.2 v 75.4 H 36.675 Z"
         id="path78" />
    </clipPath>
    <clipPath
       clipPathUnits="userSpaceOnUse"
       id="clipPath90">
      <path
         d="M 36.675,41.8 H 277.2 v 75.4 H 36.675 Z"
         id="path88" />
    </clipPath>
    <clipPath
       clipPathUnits="userSpaceOnUse"
       id="clipPath100">
      <path
         d="M 36.675,41.8 H 277.2 v 75.4 H 36.675 Z"
         id="path98" />
    </clipPath>
  </defs>
  <sodipodi:namedview
     id="namedview4"
     pagecolor="#ffffff"
     bordercolor="#666666"
     borderopacity="1.0"
     inkscape:showpageshadow="2"
     inkscape:pageopacity="0.0"
     inkscape:pagecheckerboard="0"
     inkscape:deskcolor="#d1d1d1" />
  <g
     id="g8"
     inkscape:groupmode="layer"
     inkscape:label="counts-treskowallee-south"
     transform="matrix(1.3333333,0,0,-1.3333333,0,192)">
    <path
       d="M 36.675,41.8 H 277.2 v 75.4 H 36.675 Z"
       style="fill:#ffffff;fill-opacity:1;fill-rule:nonzero;stroke:none"
       id="path10" />
    <path
       d="M 47.607955,41.8 V 38.3"
       style="fill:#000000;fill-opacity:1;fill-rule:nonzero;stroke:#000000;stroke-width:0.8;stroke-linecap:butt;stroke-linejoin:round;stroke-miterlimit:10;stroke-dasharray:none;stroke-opacity:1"
       id="path12" />
    <g
       id="g14"
       transform="translate(44.428267,27.20625)">
      <text
         xml:space="preserve"
         transform="scale(1,-1)"
         style="font-variant:normal;font-weight:normal;font-size:10px;font-family:DejaVuSans;-inkscape-font-specification:DejaVuSans;writing-mode:lr-tb;fill:#000000;fill-opacity:1;fill-rule:nonzero;stroke:none"
         id="text18"><tspan
           x="0"
           y="0"
           id="tspan16">0</tspan></text>
    </g>
    <path
       d="M 95.14254,41.8 V 38.3"
       style="fill:#000000;fill-opacity:1;fill-rule:nonzero;stroke:#000000;stroke-width:0.8;stroke-linecap:butt;stroke-linejoin:round;stroke-miterlimit:10;stroke-dasharray:none;stroke-opacity:1"
       id="path20" />
    <g
       id="g22"
       transform="translate(91.962852,27.20625)">
      <text
         xml:space="preserve"
         transform="scale(1,-1)"
         style="font-variant:normal;font-weight:normal;font-size:10px;font-family:DejaVuSans;-inkscape-font-specification:DejaVuSans;writing-mode:lr-tb;fill:#000000;fill-opacity:1;fill-rule:nonzero;stroke:none"
         id="text26"><tspan
           x="0"
           y="0"
           id="tspan24">5</tspan></text>
    </g>
    <path
       d="M 142.67712,41.8 V 38.3"
       style="fill:#000000;fill-opacity:1;fill-rule:nonzero;stroke:#000000;stroke-width:0.8;stroke-linecap:butt;stroke-linejoin:round;stroke-miterlimit:10;stroke-dasharray:none;stroke-opacity:1"
       id="path28" />
    <g
       id="g30"
       transform="translate(136.31775,27.20625)">
      <text
         xml:space="preserve"
         transform="scale(1,-1)"
         style="font-variant:normal;font-weight:normal;font-size:10px;font-family:DejaVuSans;-inkscape-font-specification:DejaVuSans;writing-mode:lr-tb;fill:#000000;fill-opacity:1;fill-rule:nonzero;stroke:none"
         id="text34"><tspan
           x="0 6.3600001"
           y="0"
           sodipodi:role="line"
           id="tspan32">10</tspan></text>
    </g>
    <path
       d="M 190.21171,41.8 V 38.3"
       style="fill:#000000;fill-opacity:1;fill-rule:nonzero;stroke:#000000;stroke-width:0.8;stroke-linecap:butt;stroke-linejoin:round;stroke-miterlimit:10;stroke-dasharray:none;stroke-opacity:1"
       id="path36" />
    <g
       id="g38"
       transform="translate(183.85233,27.20625)">
      <text
         xml:space="preserve"
         transform="scale(1,-1)"
         style="font-variant:normal;font-weight:normal;font-size:10px;font-family:DejaVuSans;-inkscape-font-specification:DejaVuSans;writing-mode:lr-tb;fill:#000000;fill-opacity:1;fill-rule:nonzero;stroke:none"
         id="text42"><tspan
           x="0 6.3600001"
           y="0"
           sodipodi:role="line"
           id="tspan40">15</tspan></text>
    </g>
    <path
       d="M 237.74629,41.8 V 38.3"
       style="fill:#000000;fill-opacity:1;fill-rule:nonzero;stroke:#000000;stroke-width:0.8;stroke-linecap:butt;stroke-linejoin:round;stroke-miterlimit:10;stroke-dasharray:none;stroke-opacity:1"
       id="path44" />
    <g
       id="g46"
       transform="translate(231.38692,27.20625)">
      <text
         xml:space="preserve"
         transform="scale(1,-1)"
         style="font-variant:normal;font-weight:normal;font-size:10px;font-family:DejaVuSans;-inkscape-font-specification:DejaVuSans;writing-mode:lr-tb;fill:#000000;fill-opacity:1;fill-rule:nonzero;stroke:none"
         id="text50"><tspan
           x="0 6.3600001"
           y="0"
           sodipodi:role="line"
           id="tspan48">20</tspan></text>
    </g>
    <g
       id="g52"
       transform="translate(145.47656,13.534375)">
      <text
         xml:space="preserve"
         transform="scale(1,-1)"
         style="font-variant:normal;font-weight:normal;font-size:10px;font-family:DejaVuSans;-inkscape-font-specification:DejaVuSans;writing-mode:lr-tb;fill:#000000;fill-opacity:1;fill-rule:nonzero;stroke:none"
         id="text56"><tspan
           x="0 6.3400002 12.46 18.799999"
           y="0"
           sodipodi:role="line"
           id="tspan54">hour</tspan></text>
    </g>
    <path
       d="m 36.675,45.227273 h -3.5"
       style="fill:#000000;fill-opacity:1;fill-rule:nonzero;stroke:#000000;stroke-width:0.8;stroke-linecap:butt;stroke-linejoin:round;stroke-miterlimit:10;stroke-dasharray:none;stroke-opacity:1"
       id="path58" />
    <g
       id="g60"
       transform="translate(23.315625,41.430398)">
      <text
         xml:space="preserve"
         transform="scale(1,-1)"
         style="font-variant:normal;font-weight:normal;font-size:10px;font-family:DejaVuSans;-inkscape-font-specification:DejaVuSans;writing-mode:lr-tb;fill:#000000;fill-opacity:1;fill-rule:nonzero;stroke:none"
         id="text64"><tspan
           x="0"
           y="0"
           id="tspan62">0</tspan></text>
    </g>
    <path
       d="m 36.675,86.028139 h -3.5"
       style="fill:#000000;fill-opacity:1;fill-rule:nonzero;stroke:#000000;stroke-width:0.8;stroke-linecap:butt;stroke-linejoin:round;stroke-miterlimit:10;stroke-dasharray:none;stroke-opacity:1"
       id="path66" />
    <g
       id="g68"
       transform="translate(10.596875,82.231264)">
      <text
         xml:space="preserve"
         transform="scale(1,-1)"
         style="font-variant:normal;font-weight:normal;font-size:10px;font-family:DejaVuSans;-inkscape-font-specification:DejaVuSans;writing-mode:lr-tb;fill:#000000;fill-opacity:1;fill-rule:nonzero;stroke:none"
         id="text72"><tspan
           x="0 6.3600001 12.72"
           y="0"
           sodipodi:role="line"
           id="tspan70">500</tspan></text>
    </g>
    <g
       id="g74">
      <g
         id="g76"
         clip-path="url(#clipPath80)">
        <path
           d="m 47.607955,49.470563 9.506917,-0.734416 9.506917,0.244805 9.506917,3.100866 9.506917,14.60671 9.506917,25.867749 9.50692,2.611255 9.50691,-0.571212 9.50692,-2.529653 9.50692,-4.324892 9.50691,-4.977706 9.50692,3.019264 9.50692,-4.080086 9.50691,1.387229 9.50692,3.182468 9.50692,3.100866 9.50692,-1.87684 9.50691,3.427272 9.50692,-0.571212 9.50692,-6.201731 9.50691,-6.854546 9.50692,-7.09935 9.50692,-10.526624 9.50691,-5.222511"
           style="fill:none;stroke:#0000ff;stroke-width:1.5;stroke-linecap:square;stroke-linejoin:round;stroke-miterlimit:10;stroke-dasharray:none;stroke-opacity:1"
           id="path82" />
      </g>
    </g>
    <g
       id="g84">
      <g
         id="g86"
         clip-path="url(#clipPath90)">
        <path
           d="m 47.607955,45.227273 9.506917,1.224026 9.506917,-0.571212 9.506917,0.652813 9.506917,0.571213 9.506917,23.256493 9.50692,16.238745 9.50691,2.937662 9.50692,-4.569697 9.50692,3.264069 9.50691,0.408009 9.50692,3.672078 9.50692,-6.283333 9.50691,6.772943 9.50692,6.772944 9.50692,0.0816 9.50692,-0.408009 9.50691,2.040043 9.50692,-7.09935 9.50692,-5.304113 9.50691,-15.259524 9.50692,-14.198701 9.50692,-5.793723 9.50691,-3.100866"
           style="fill:none;stroke:#ff0000;stroke-width:1.5;stroke-linecap:butt;stroke-linejoin:round;stroke-miterlimit:10;stroke-dasharray:5.55, 2.4;stroke-dashoffset:0;stroke-opacity:1"
           id="path92" />
      </g>
    </g>
    <g
       id="g94">
      <g
         id="g96"
         clip-path="url(#clipPath100)">
        <path
           d="m 47.607955,45.227273 9.506917,1.632034 9.506917,-0.816017 9.506917,0.816017 9.506917,2.448052 9.506917,41.616883 9.50692,15.504328 9.50691,-0.81602 9.50692,0.81602 9.50692,-3.26407 9.50691,-10.608223 9.50692,12.240263 9.50692,-5.712124 9.50691,-2.448052 9.50692,17.136366 9.50692,-13.05628 9.50692,4.08009 9.50691,-10.608228 9.50692,8.976188 9.50692,4.89611 9.50691,-14.688316 9.50692,-22.848484 9.50692,-16.320347 9.50691,-2.448052"
           style="fill:none;stroke:#808080;stroke-width:1.5;stroke-linecap:butt;stroke-linejoin:round;stroke-miterlimit:10;stroke-dasharray:9.6, 2.4, 1.5, 2.4;stroke-dashoffset:0;stroke-opacity:1"
           id="path102" />
      </g>
    </g>
    <g
       id="g104">
      <path
         d="m 36.675,41.8 v 75.4"
         style="fill:none;stroke:#000000;stroke-width:0.8;stroke-linecap:square;stroke-linejoin:miter;stroke-miterlimit:10;stroke-dasharray:none;stroke-opacity:1"
         id="path106" />
      <path
         d="m 277.2,41.8 v 75.4"
         style="fill:none;stroke:#000000;stroke-width:0.8;stroke-linecap:square;stroke-linejoin:miter;stroke-miterlimit:10;stroke-dasharray:none;stroke-opacity:1"
         id="path108" />
      <path
         d="M 36.675,41.8 H 277.2"
         style="fill:none;stroke:#000000;stroke-width:0.8;stroke-linecap:square;stroke-linejoin:miter;stroke-miterlimit:10;stroke-dasharray:none;stroke-opacity:1"
         id="path110" />
      <path
         d="M 36.675,117.2 H 277.2"
         style="fill:none;stroke:#000000;stroke-width:0.8;stroke-linecap:square;stroke-linejoin:miter;stroke-miterlimit:10;stroke-dasharray:none;stroke-opacity:1"
         id="path112" />
      <g
         id="g114"
         transform="translate(70.351562,123.2)">
        <text
           xml:space="preserve"
           transform="scale(1,-1)"
           style="font-variant:normal;font-weight:normal;font-size:12px;font-family:DejaVuSans;-inkscape-font-specification:DejaVuSans;writing-mode:lr-tb;fill:#000000;fill-opacity:1;fill-rule:nonzero;stroke:none"
           id="text118"><tspan
             x="0 5.5819998 10.264 17.643999 23.896 30.422125 37.766125 47.582127 54.938126 58.274124 61.610126 68.990128 76.370125 80.186127 87.806122 95.150124 102.75813 107.46213 115.07012 118.88612 128.12613 131.46213 136.14412 143.52412 150.12413 154.82812 158.16412 165.50812"
             y="0"
             sodipodi:role="line"
             id="tspan116">Treskowallee South Direction</tspan></text>
      </g>
      <path
         d="m 43.675,55.992188 h 69.54687 c 1.33334,0 2,0.666666 2,2 v 43.015622 c 0,1.33334 -0.66666,2 -2,2 H 43.675 c -1.333333,0 -2,-0.66666 -2,-2 V 57.992188 c 0,-1.333334 0.666667,-2 2,-2 z"
         style="fill:#ffffff;fill-opacity:0.8;fill-rule:nonzero;stroke:#cccccc;stroke-width:1;stroke-linecap:butt;stroke-linejoin:miter;stroke-miterlimit:10;stroke-dasharray:none;stroke-opacity:0.8"
         id="path120" />
      <path
         d="m 45.675,94.914062 h 10 10"
         style="fill:none;stroke:#0000ff;stroke-width:1.5;stroke-linecap:square;stroke-linejoin:round;stroke-miterlimit:10;stroke-dasharray:none;stroke-opacity:1"
         id="path122" />
      <g
         id="g124"
         transform="translate(73.675,91.414063)">
        <text
           xml:space="preserve"
           transform="scale(1,-1)"
           style="font-variant:normal;font-weight:normal;font-size:10px;font-family:DejaVuSans;-inkscape-font-specification:DejaVuSans;writing-mode:lr-tb;fill:#000000;fill-opacity:1;fill-rule:nonzero;stroke:none"
           id="text128"><tspan
             x="0 3.8912499 10.04125 16.171249"
             y="0"
             sodipodi:role="line"
             id="tspan126">real</tspan></text>
      </g>
      <path
         d="m 45.675,80.242188 h 10 10"
         style="fill:none;stroke:#ff0000;stroke-width:1.5;stroke-linecap:butt;stroke-linejoin:round;stroke-miterlimit:10;stroke-dasharray:5.55, 2.4;stroke-dashoffset:0;stroke-opacity:1"
         id="path130" />
      <g
         id="g132"
         transform="translate(73.675,76.742187)">
        <text
           xml:space="preserve"
           transform="scale(1,-1)"
           style="font-variant:normal;font-weight:normal;font-size:10px;font-family:DejaVuSans;-inkscape-font-specification:DejaVuSans;writing-mode:lr-tb;fill:#000000;fill-opacity:1;fill-rule:nonzero;stroke:none"
           id="text136"><tspan
             x="0 5.21 11.55 21.290001"
             y="0"
             sodipodi:role="line"
             id="tspan134">sumo</tspan></text>
      </g>
      <path
         d="m 45.675,65.570312 h 10 10"
         style="fill:none;stroke:#808080;stroke-width:1.5;stroke-linecap:butt;stroke-linejoin:round;stroke-miterlimit:10;stroke-dasharray:9.6, 2.4, 1.5, 2.4;stroke-dashoffset:0;stroke-opacity:1"
         id="path138" />
      <g
         id="g140"
         transform="translate(73.675,62.070313)">
        <text
           xml:space="preserve"
           transform="scale(1,-1)"
           style="font-variant:normal;font-weight:normal;font-size:10px;font-family:DejaVuSans;-inkscape-font-specification:DejaVuSans;writing-mode:lr-tb;fill:#000000;fill-opacity:1;fill-rule:nonzero;stroke:none"
           id="text144"><tspan
             x="0 9.7399998 15.87 19.790001 25 27.780001"
             y="0"
             sodipodi:role="line"
             id="tspan142">matsim</tspan></text>
      </g>
    </g>
  </g>
</svg>
